<?xml version="1.0" encoding="UTF-8" standalone="no"?>
<svg width="102px" height="135px" viewBox="0 0 102 135" version="1.1" xmlns="http://www.w3.org/2000/svg" xmlns:xlink="http://www.w3.org/1999/xlink" xmlns:sketch="http://www.bohemiancoding.com/sketch/ns">
    <!-- Generator: Sketch 3.5.2 (25235) - http://www.bohemiancoding.com/sketch -->
    <title>Page 1</title>
    <desc>Created with Sketch.</desc>
    <defs></defs>
    <g id="Page-1" stroke="none" stroke-width="1" fill="none" fill-rule="evenodd" sketch:type="MSPage">
        <g sketch:type="MSLayerGroup" fill="#1C1B1A">
            <g id="Group-3" transform="translate(29.000000, 0.000000)" sketch:type="MSShapeGroup">
                <path d="M24.6241,19.5859 C23.9071,17.9849 24.7631,16.6729 26.5151,16.6729 L48.1691,16.6729 C50.2971,16.6729 52.0411,14.9309 52.0411,12.8009 L52.0411,4.6739 C52.0411,2.5439 50.2971,0.8009 48.1691,0.8009 L2.7321,0.8009 C0.6001,0.8009 -0.4349,2.3909 0.4371,4.3369 L57.6491,132.5829 C58.5171,134.5279 60.8191,135.4079 62.7651,134.5409 L70.1841,131.2319 C72.1301,130.3589 73.0141,128.0569 72.1421,126.1109 L24.6241,19.5859 Z" id="Fill-1"></path>
            </g>
            <path d="M24.9274,111.9111 C22.8944,112.5491 21.6974,111.3881 22.2674,109.3371 L37.6214,54.1011 C37.9344,52.9751 37.7994,51.1801 37.3204,50.1141 L29.6114,32.8671 C28.7404,30.9201 27.5624,31.0081 26.9914,33.0611 L0.2994,129.1031 C-0.8996,133.4111 1.6134,135.8451 5.8834,134.5091 L62.8664,116.6711 C64.8994,116.0331 65.8504,113.9211 64.9824,111.9751 L61.3044,103.7551 C60.6074,102.1971 58.7054,101.3381 57.0764,101.8481 L24.9274,111.9111 Z" id="Fill-4" sketch:type="MSShapeGroup"></path>
        </g>
    </g>
</svg>