<?xml version="1.0" encoding="UTF-8" standalone="no"?>
<svg width="558px" height="135px" viewBox="0 0 558 135" version="1.1" xmlns="http://www.w3.org/2000/svg" xmlns:xlink="http://www.w3.org/1999/xlink" xmlns:sketch="http://www.bohemiancoding.com/sketch/ns">
    <!-- Generator: Sketch 3.5.2 (25235) - http://www.bohemiancoding.com/sketch -->
    <title>Page 1</title>
    <desc>Created with Sketch.</desc>
    <defs>
        <path id="path-1" d="M0,0.801 L571.053,0.801 L571.053,147 L0,147 L0,0.801 Z"></path>
        <path id="path-3" d="M0,0.801 L571.053,0.801 L571.053,147 L0,147 L0,0.801 Z"></path>
    </defs>
    <g id="Page-1" stroke="none" stroke-width="1" fill="none" fill-rule="evenodd" sketch:type="MSPage">
        <g sketch:type="MSLayerGroup">
            <g id="Group-3">
                <mask id="mask-2" sketch:name="Clip 2" fill="white">
                    <use xlink:href="#path-1"></use>
                </mask>
                <g id="Clip-2"></g>
                <path d="M53.6241,19.5859 C52.9071,17.9849 53.7631,16.6729 55.5151,16.6729 L77.1691,16.6729 C79.2971,16.6729 81.0411,14.9309 81.0411,12.8009 L81.0411,4.6739 C81.0411,2.5439 79.2971,0.8009 77.1691,0.8009 L31.7321,0.8009 C29.6001,0.8009 28.5651,2.3909 29.4371,4.3369 L86.6491,132.5829 C87.5171,134.5279 89.8191,135.4079 91.7651,134.5409 L99.1841,131.2319 C101.1301,130.3589 102.0141,128.0569 101.1421,126.1109 L53.6241,19.5859 Z" id="Fill-1" fill="#F68F1F" sketch:type="MSShapeGroup" mask="url(#mask-2)"></path>
            </g>
            <path d="M24.9274,111.9111 C22.8944,112.5491 21.6974,111.3881 22.2674,109.3371 L37.6214,54.1011 C37.9344,52.9751 37.7994,51.1801 37.3204,50.1141 L29.6114,32.8671 C28.7404,30.9201 27.5624,31.0081 26.9914,33.0611 L0.2994,129.1031 C-0.8996,133.4111 1.6134,135.8451 5.8834,134.5091 L62.8664,116.6711 C64.8994,116.0331 65.8504,113.9211 64.9824,111.9751 L61.3044,103.7551 C60.6074,102.1971 58.7054,101.3381 57.0764,101.8481 L24.9274,111.9111 Z" id="Fill-4" fill="#F68F1F" sketch:type="MSShapeGroup"></path>
            <mask id="mask-4" sketch:name="Clip 6" fill="white">
                <use xlink:href="#path-3"></use>
            </mask>
            <g id="Clip-6"></g>
            <path d="M171.703182,19.9469134 L175.01576,19.9469134 L175.01576,83.3766538 C175.01576,91.6785891 172.674486,98.2832317 167.991867,103.19078 C163.309248,108.098328 157.287368,110.552065 149.926046,110.552065 C141.7468,110.552065 135.30574,108.384597 130.602673,104.049596 C125.899606,99.7145956 123.650347,93.3757745 123.854828,85.032943 L123.977516,84.6648787 L126.799342,84.6648787 C126.799342,91.9444082 128.78278,97.5266603 132.749714,101.411802 C136.716649,105.296945 142.442036,107.239487 149.926046,107.239487 C156.18317,107.239487 161.376914,105.092466 165.507433,100.798362 C169.637953,96.5042575 171.703182,90.6970795 171.703182,83.3766538 L171.703182,19.9469134 Z M244.947969,82.5791812 L201.27101,82.5791812 L191.333275,109.26384 L187.713977,109.26384 L221.085136,19.9469134 L225.133843,19.9469134 L258.566346,109.26384 L254.947048,109.26384 L244.947969,82.5791812 Z M202.497891,79.2666029 L243.721088,79.2666029 L225.011155,28.9644877 L223.293522,23.9342762 L222.925458,23.9342762 L221.269168,28.9644877 L202.497891,79.2666029 Z M326.535546,87.8547689 C326.535546,82.251985 324.480541,77.7739147 320.37047,74.4204235 C316.260398,71.0669324 309.134337,67.9997609 298.992071,65.2188171 C288.808909,62.4787695 281.355682,59.3604785 276.632167,55.8638505 C271.908652,52.3672226 269.54693,47.265494 269.54693,40.5585118 C269.54693,33.8924258 272.327832,28.5759953 277.88972,24.6090606 C283.451608,20.642126 290.546998,18.6586885 299.176103,18.6586885 C307.887001,18.6586885 315.002838,21.0919778 320.52383,25.9586296 C326.044821,30.8252813 328.723484,37.0823111 328.5599,44.7299067 L328.437211,45.097971 L325.615385,45.097971 C325.615385,38.431885 323.161648,32.9109763 318.2541,28.5350794 C313.346552,24.1591825 306.987283,21.9712668 299.176103,21.9712668 C291.078649,21.9712668 284.66826,23.780898 279.944745,27.4002146 C275.221231,31.0195312 272.859508,35.3646908 272.859508,40.4358237 C272.859508,45.5069566 274.812274,49.7192055 278.717865,53.0726966 C282.623455,56.4261877 289.688173,59.4115679 299.912231,62.0289269 C309.80912,64.6462858 317.282794,67.846368 322.333479,71.6292696 C327.384164,75.4121711 329.909468,80.7797212 329.909468,87.7320809 C329.909468,94.8071292 327.026327,100.379157 321.259958,104.448333 C315.49359,108.517508 308.275513,110.552065 299.605511,110.552065 C290.649236,110.552065 282.940412,108.456164 276.478807,104.2643 C270.017202,100.072437 266.888687,93.4780179 267.093168,84.4808466 L267.215857,84.1127823 L269.976338,84.1127823 C269.976338,92.2102365 272.961719,98.0889818 278.932569,101.749195 C284.903419,105.409408 291.794331,107.239487 299.605511,107.239487 C307.457588,107.239487 313.908872,105.440079 318.959557,101.841211 C324.010242,98.2423422 326.535546,93.5802416 326.535546,87.8547689 L326.535546,87.8547689 Z M361.624339,89.0203058 L365.489013,103.068092 L365.857078,103.068092 L369.721752,89.0203058 L390.824103,19.9469134 L394.504746,19.9469134 L415.484408,89.0203058 L419.287739,103.068092 L419.655803,103.068092 L423.643166,89.0203058 L442.046379,19.9469134 L445.665678,19.9469134 L421.618813,109.26384 L417.876826,109.26384 L395.731627,34.7921718 L392.787112,25.8972855 L392.419048,25.8972855 L389.597222,34.7921718 L367.267991,109.26384 L363.526004,109.26384 L339.417795,19.9469134 L343.098438,19.9469134 L361.624339,89.0203058 Z M467.504157,109.26384 L464.191579,109.26384 L464.191579,19.9469134 L467.504157,19.9469134 L467.504157,109.26384 Z M557.434524,99.6941692 C555.553297,102.311528 551.944259,104.775489 546.6073,107.086126 C541.270342,109.396764 534.716819,110.552065 526.946534,110.552065 C516.722476,110.552065 508.430889,106.912355 502.071525,99.6328252 C495.712161,92.3532957 492.532526,82.8859597 492.532526,71.2305333 L492.532526,56.6306511 C492.532526,45.4250832 495.620146,36.2951361 501.795477,29.2405359 C507.970808,22.1859357 516.006797,18.6586885 525.903686,18.6586885 C535.350716,18.6586885 542.844838,21.1022018 548.386277,25.9893016 C553.927717,30.8764015 556.759739,37.1845508 556.882427,44.9139389 L556.759739,45.2820031 L553.999257,45.2820031 C553.672088,38.3705397 551.126335,32.7576159 546.361924,28.4430633 C541.597513,24.1285107 534.778168,21.9712668 525.903686,21.9712668 C516.865618,21.9712668 509.596422,25.1917968 504.095878,31.6329536 C498.595335,38.0741103 495.845105,46.3656972 495.845105,56.507963 L495.845105,71.2305333 C495.845105,81.8635539 498.68735,90.5232014 504.371927,97.2097355 C510.056503,103.89627 517.581297,107.239487 526.946534,107.239487 C533.530828,107.239487 539.286886,106.278439 544.214883,104.356317 C549.142879,102.434194 552.4452,100.368965 554.121946,98.1605682 L554.121946,72.1506939 L526.823846,72.1506939 L526.823846,68.7767716 L557.434524,68.7767716 L557.434524,99.6941692 Z" id="JASWIG" fill="#FFFFFF" sketch:type="MSShapeGroup" mask="url(#mask-4)"></path>
        </g>
    </g>
</svg>