<?xml version="1.0" encoding="utf-8"?>
<!-- Generator: Adobe Illustrator 16.0.0, SVG Export Plug-In . SVG Version: 6.00 Build 0)  -->
<!DOCTYPE svg PUBLIC "-//W3C//DTD SVG 1.1//EN" "http://www.w3.org/Graphics/SVG/1.1/DTD/svg11.dtd">
<svg version="1.1" id="Layer_1" xmlns="http://www.w3.org/2000/svg" xmlns:xlink="http://www.w3.org/1999/xlink" x="0px" y="0px"
	 width="2000.789px" height="425.199px" viewBox="0 0 2000.789 425.199" enable-background="new 0 0 2000.789 425.199"
	 xml:space="preserve">
<path d="M329.026,64.405c-2.113-4.722,0.41-8.592,5.575-8.592h63.855c6.273,0,11.419-5.137,11.419-11.418V20.429
	c0-6.28-5.146-11.421-11.419-11.421H264.468c-6.285,0-9.339,4.691-6.767,10.428l168.71,378.183
	c2.561,5.734,9.348,8.329,15.087,5.773l21.875-9.758c5.739-2.575,8.349-9.365,5.775-15.101L329.026,64.405z"/>
<path d="M244.403,336.66c-5.995,1.879-9.525-1.542-7.845-7.594l45.276-162.883c0.924-3.318,0.525-8.612-0.885-11.756l-22.733-50.859
	c-2.568-5.742-6.042-5.482-7.726,0.568l-78.713,283.22c-3.535,12.702,3.874,19.883,16.467,15.944l168.036-52.604
	c5.996-1.883,8.8-8.11,6.241-13.85l-10.846-24.238c-2.055-4.596-7.665-7.129-12.469-5.628L244.403,336.66z"/>
<g enable-background="new    ">
	<path d="M676.681,76.35h9.769v187.047c0,24.482-6.874,43.957-20.623,58.429c-13.748,14.472-31.476,21.708-53.183,21.708
		c-24.122,0-43.144-6.391-57.073-19.175c-13.929-12.781-20.594-31.477-19.989-56.078l0.362-1.085h8.321
		c0,22.793,5.758,39.588,17.275,50.379c11.515,10.795,28.551,16.19,51.104,16.19c18.451,0,33.737-6.331,45.857-18.994
		c12.12-12.662,18.18-29.785,18.18-51.374V76.35z"/>
	<path d="M892.671,261.045H764.054l-29.486,78.689h-10.673L822.302,76.35h11.939l98.588,263.385h-10.673L892.671,261.045z
		 M767.672,251.277h121.381L833.88,103.846l-5.065-15.376h-1.085l-4.884,15.376L767.672,251.277z"/>
	<path d="M1130.731,277.687c0-15.073-6.182-27.225-18.543-36.45c-12.363-9.226-33.438-18.723-63.223-28.491
		c-29.666-9.045-51.527-18.632-65.575-28.762c-14.051-10.13-21.074-25.145-21.074-45.043c0-19.777,8.23-35.786,24.692-48.028
		c16.46-12.239,37.355-18.361,62.679-18.361c26.291,0,47.424,6.755,63.404,20.26c15.979,13.508,23.727,32.38,23.246,56.621
		l-0.361,1.085h-8.322c0-19.656-7.236-35.936-21.707-48.842c-14.473-12.903-33.227-19.355-56.26-19.355
		c-23.758,0-42.631,5.579-56.62,16.733c-13.991,11.156-20.984,24.331-20.984,39.525c0,15.195,5.637,27.527,16.914,36.994
		c11.275,9.469,32.29,18.723,63.043,27.768c29.906,9.406,52.156,19.175,66.75,29.305c14.59,10.131,21.889,25.026,21.889,44.682
		c0,20.021-8.625,36.061-25.869,48.118c-17.246,12.061-38.531,18.09-63.855,18.09c-26.412,0-49.145-6.179-68.198-18.542
		c-19.057-12.36-28.282-31.807-27.678-58.339l0.362-1.085h8.14c0,23.878,8.802,41.216,26.411,52.007
		c17.607,10.795,37.925,16.19,60.962,16.19c23.033,0,42.086-5.336,57.162-16.009
		C1123.192,307.083,1130.731,293.728,1130.731,277.687z"/>
	<path d="M1236.737,278.23l11.396,42.691h1.084l11.396-42.691l62.229-201.88h10.854l61.867,201.88l11.215,42.691h1.086
		l11.758-42.691l54.27-201.88h10.672l-70.91,263.385h-11.035l-65.303-219.608l-8.684-26.23h-1.086l-8.32,26.23l-65.848,219.608
		h-11.033L1171.25,76.35h10.855L1236.737,278.23z"/>
	<path d="M1548.963,339.735h-9.77V76.35h9.77V339.735z"/>
	<path d="M1814.156,304.279c-5.549,9.407-16.189,18.302-31.928,26.683c-15.738,8.384-35.066,12.572-57.979,12.572
		c-30.15,0-54.602-10.732-73.354-32.199c-18.754-21.465-28.129-49.385-28.129-83.755v-43.054c0-33.042,9.105-59.967,27.316-80.77
		c18.207-20.803,41.904-31.205,71.092-31.205c28.098,0,50.498,7.236,67.203,21.708c16.701,14.472,24.752,33.044,24.148,55.716
		l-0.361,1.085h-8.141c0-20.139-7.207-36.631-21.617-49.475c-14.412-12.843-34.822-19.265-61.232-19.265
		c-26.654,0-48.09,9.497-64.309,28.491c-16.221,18.994-24.33,43.446-24.33,73.353v43.416c0,31.356,8.379,56.892,25.145,76.609
		c16.76,19.718,38.951,29.576,66.568,29.576c21.104,0,38.5-3.437,52.189-10.311c13.686-6.874,23.002-14.771,27.949-23.698v-74.891
		h-80.5v-9.949h90.268V304.279z"/>
</g>
</svg>
