<?xml version="1.0" encoding="utf-8"?>
<!-- Generator: Adobe Illustrator 16.0.0, SVG Export Plug-In . SVG Version: 6.00 Build 0)  -->
<!DOCTYPE svg PUBLIC "-//W3C//DTD SVG 1.1//EN" "http://www.w3.org/Graphics/SVG/1.1/DTD/svg11.dtd">
<svg version="1.1" id="Layer_1" xmlns="http://www.w3.org/2000/svg" xmlns:xlink="http://www.w3.org/1999/xlink" x="0px" y="0px"
	 width="2000.79px" height="425.2px" viewBox="0 0 1700.79 425.2" enable-background="new 0 0 1700.79 425.2" xml:space="preserve">
<g>
	<path d="M179.026,64.405c-2.114-4.722,0.41-8.592,5.575-8.592h63.855c6.274,0,11.419-5.137,11.419-11.418V20.429
		c0-6.28-5.145-11.421-11.419-11.421H114.468c-6.285,0-9.339,4.691-6.767,10.428l168.711,378.183
		c2.56,5.734,9.347,8.329,15.087,5.773l21.875-9.758c5.739-2.575,8.348-9.365,5.775-15.1L179.026,64.405z"/>
	<path d="M94.403,336.661c-5.996,1.879-9.526-1.542-7.845-7.594l45.276-162.883c0.924-3.319,0.526-8.612-0.885-11.756
		l-22.733-50.859c-2.568-5.743-6.042-5.483-7.726,0.568l-78.712,283.22c-3.536,12.702,3.874,19.883,16.466,15.944l168.037-52.604
		c5.996-1.883,8.799-8.111,6.241-13.85l-10.846-24.238c-2.055-4.596-7.665-7.129-12.469-5.628L94.403,336.661z"/>
	<text transform="matrix(1 0 0 1 368.7588 339.7344)" font-family="'Roboto-Thin'" font-size="370.4753">JASWIG</text>
</g>
</svg>
