<?xml version="1.0" encoding="UTF-8" standalone="no"?>
<!-- Generator: Adobe Illustrator 16.0.0, SVG Export Plug-In . SVG Version: 6.00 Build 0)  -->

<svg
   xmlns:dc="http://purl.org/dc/elements/1.1/"
   xmlns:cc="http://creativecommons.org/ns#"
   xmlns:rdf="http://www.w3.org/1999/02/22-rdf-syntax-ns#"
   xmlns:svg="http://www.w3.org/2000/svg"
   xmlns="http://www.w3.org/2000/svg"
   xmlns:sodipodi="http://sodipodi.sourceforge.net/DTD/sodipodi-0.dtd"
   xmlns:inkscape="http://www.inkscape.org/namespaces/inkscape"
   version="1.1"
   id="Layer_1"
   x="0px"
   y="0px"
   width="2000.79px"
   height="425.2px"
   viewBox="0 0 1700.79 425.2"
   enable-background="new 0 0 1700.79 425.2"
   xml:space="preserve"
   inkscape:version="0.91 r13725"
   sodipodi:docname="logo_black_website.svg"><metadata
     id="metadata15"><rdf:RDF><cc:Work
         rdf:about=""><dc:format>image/svg+xml</dc:format><dc:type
           rdf:resource="http://purl.org/dc/dcmitype/StillImage" /><dc:title></dc:title></cc:Work></rdf:RDF></metadata><defs
     id="defs13" /><sodipodi:namedview
     pagecolor="#ffffff"
     bordercolor="#666666"
     borderopacity="1"
     objecttolerance="10"
     gridtolerance="10"
     guidetolerance="10"
     inkscape:pageopacity="0"
     inkscape:pageshadow="2"
     inkscape:window-width="640"
     inkscape:window-height="480"
     id="namedview11"
     showgrid="false"
     inkscape:zoom="0.23690642"
     inkscape:cx="375.67577"
     inkscape:cy="212.60001"
     inkscape:current-layer="Layer_1" /><g
     id="g3"><path
       d="M179.026,64.405c-2.114-4.722,0.41-8.592,5.575-8.592h63.855c6.274,0,11.419-5.137,11.419-11.418V20.429   c0-6.28-5.145-11.421-11.419-11.421H114.468c-6.285,0-9.339,4.691-6.767,10.428l168.711,378.183   c2.56,5.734,9.347,8.329,15.087,5.773l21.875-9.758c5.739-2.575,8.348-9.365,5.775-15.1L179.026,64.405z"
       id="path5" /><path
       d="M94.403,336.661c-5.996,1.879-9.526-1.542-7.845-7.594l45.276-162.883c0.924-3.319,0.526-8.612-0.885-11.756   l-22.733-50.859c-2.568-5.743-6.042-5.483-7.726,0.568l-78.712,283.22c-3.536,12.702,3.874,19.883,16.466,15.944l168.037-52.604   c5.996-1.883,8.799-8.111,6.241-13.85l-10.846-24.238c-2.055-4.596-7.665-7.129-12.469-5.628L94.403,336.661z"
       id="path7" /><g
       transform="matrix(1 0 0 1 368.7588 339.7344)"
       style="font-size:370.47531128px;font-family:Roboto-Thin"
       id="text9"><path
         d="m 36.360126,-270.07795 36.541022,0 0,251.264751 q 0,48.84196 -18.632304,70.91129 -18.451407,22.06933 -59.5148323,22.06933 l -13.9290037,0 0,-30.752345 11.3964576,0 q 24.2400834,0 34.1893724,-13.567212 9.949288,-13.567211 9.949288,-48.661063 l 0,-251.264751 z"
         style="font-size:370.47531128px;font-family:Roboto-Thin"
         id="path4144" /><path
         d="m 229.37632,-234.07962 -49.56555,134.405842 99.31199,0 -49.74644,-134.405842 z m -20.62216,-35.99833 41.42522,0 L 353.10928,0 l -37.98819,0 -24.60187,-69.283225 -121.74311,0 L 144.17423,0 105.64335,0 208.75416,-270.07795 Z"
         style="font-size:370.47531128px;font-family:Roboto-Thin"
         id="path4146" /><path
         d="m 554.26581,-261.21404 0,35.63654 q -20.80306,-9.94928 -39.25446,-14.83348 -18.45141,-4.8842 -35.63655,-4.8842 -29.84786,0 -46.12851,11.57736 -16.09976,11.57735 -16.09976,32.9231 0,17.90871 10.67287,27.13442 10.85377,9.04481 40.88253,14.65259 l 22.06933,4.5224 q 40.88253,7.77853 60.23842,27.49621 19.53678,19.53679 19.53678,52.459887 0,39.254464 -26.41083,59.514833 -26.22995,20.2603683 -77.06176,20.2603683 -19.175,0 -40.88253,-4.34150756 Q 404.6647,-3.4370268 381.50999,-11.939146 l 0,-37.626399 q 22.25022,12.481835 43.59597,18.8132 21.34575,6.331365 41.96791,6.331365 31.29503,0 48.29927,-12.300938 17.00424,-12.300938 17.00424,-35.093853 0,-19.898576 -12.30094,-31.114139 -12.12004,-11.21556 -39.97805,-16.82334 l -22.25023,-4.34151 q -40.88253,-8.14032 -59.15304,-25.50635 -18.27051,-17.36603 -18.27051,-48.29928 0,-35.81743 25.14457,-56.43959 25.32546,-20.62217 69.64501,-20.62217 18.9941,0 38.71178,3.43703 19.71768,3.43703 40.33984,10.31108 z"
         style="font-size:370.47531128px;font-family:Roboto-Thin"
         id="path4148" /><path
         d="m 603.46958,-270.07795 36.90281,0 56.80139,228.29094 56.6205,-228.29094 41.06342,0 56.80139,228.29094 56.6205,-228.29094 37.08371,0 L 877.52724,0 831.57962,0 774.59733,-234.44141 717.07236,0 671.12474,0 603.46958,-270.07795 Z"
         style="font-size:370.47531128px;font-family:Roboto-Thin"
         id="path4150" /><path
         d="m 993.66255,-270.07795 36.54105,0 0,270.07795 -36.54105,0 0,-270.07795 z"
         style="font-size:370.47531128px;font-family:Roboto-Thin"
         id="path4152" /><path
         d="m 1287.0761,-38.53088 0,-72.53935 -59.6957,0 0,-30.02877 95.875,0 0,115.954435 q -21.1649,15.014381 -46.6713,22.7929151 -25.5063,7.5976382 -54.4497,7.5976382 -63.3136,0 -99.1311,-36.9028143 -35.6365,-37.08371 -35.6365,-103.110804 0,-66.20799 35.6365,-103.1108 35.8175,-37.08372 99.1311,-37.08372 26.4108,0 50.1082,6.51227 23.8783,6.51226 43.9578,19.17499 l 0,38.89267 q -20.2604,-17.18513 -43.0533,-25.86815 -22.7929,-8.68301 -47.9375,-8.68301 -49.5655,0 -74.5292,27.67711 -24.7827,27.67711 -24.7827,82.48864 0,54.630636 24.7827,82.307747 24.9637,27.677111 74.5292,27.677111 19.3559,0 34.5512,-3.256131 15.1953,-3.437027 27.3153,-10.491977 z"
         style="font-size:370.47531128px;font-family:Roboto-Thin"
         id="path4154" /></g></g></svg>