<?xml version="1.0" encoding="UTF-8" standalone="no"?>
<svg width="103px" height="103px" viewBox="0 0 103 103" version="1.1" xmlns="http://www.w3.org/2000/svg" xmlns:xlink="http://www.w3.org/1999/xlink" xmlns:sketch="http://www.bohemiancoding.com/sketch/ns">
    <!-- Generator: Sketch 3.5.2 (25235) - http://www.bohemiancoding.com/sketch -->
    <title>Rectangle 82</title>
    <desc>Created with Sketch.</desc>
    <defs>
        <filter x="-50%" y="-50%" width="200%" height="200%" filterUnits="objectBoundingBox" id="filter-1">
            <feOffset dx="0" dy="15" in="SourceAlpha" result="shadowOffsetOuter1"></feOffset>
            <feGaussianBlur stdDeviation="12.5" in="shadowOffsetOuter1" result="shadowBlurOuter1"></feGaussianBlur>
            <feColorMatrix values="0 0 0 0 0   0 0 0 0 0   0 0 0 0 0  0 0 0 0.136976336 0" in="shadowBlurOuter1" type="matrix" result="shadowMatrixOuter1"></feColorMatrix>
            <feMerge>
                <feMergeNode in="shadowMatrixOuter1"></feMergeNode>
                <feMergeNode in="SourceGraphic"></feMergeNode>
            </feMerge>
        </filter>
    </defs>
    <g id="Page-1" stroke="none" stroke-width="1" fill="none" fill-rule="evenodd" sketch:type="MSPage">
        <g id="Desktop-HD-Copy-25" sketch:type="MSArtboardGroup" transform="translate(-668.000000, -492.000000)" filter="url(#filter-1)" fill="#FFFFFF">
            <path d="M692,528.5 C692,513.312169 704.30883,501 719.5,501 C734.687831,501 747,513.30883 747,528.5 C747,543.687831 734.69117,556 719.5,556 C704.312169,556 692,543.69117 692,528.5 Z M713.707861,537.945145 C712.764635,538.527725 712,538.097656 712,537.005439 L712,519.994561 C712,518.892996 712.763481,518.471561 713.707861,519.054855 L727.292139,527.445145 C728.235365,528.027725 728.236519,528.971561 727.292139,529.554855 L713.707861,537.945145 Z" id="Rectangle-82" sketch:type="MSShapeGroup"></path>
        </g>
    </g>
</svg>